<?xml version="1.0" encoding="utf-8"?>
<!-- Generator: Adobe Illustrator 23.0.1, SVG Export Plug-In . SVG Version: 6.00 Build 0)  -->
<svg version="1.1" id="Слой_1" xmlns="http://www.w3.org/2000/svg" xmlns:xlink="http://www.w3.org/1999/xlink" x="0px" y="0px"
	 viewBox="0 0 120 120" style="enable-background:new 0 0 120 120;" xml:space="preserve">
<g>
	<path style="fill:#787878;" d="M21.048,78.415H6.245C5.005,78.415,4,77.41,4,76.17V14.513c0-1.24,1.005-2.245,2.245-2.245h14.803
		c1.24,0,2.245,1.005,2.245,2.245V76.17C23.293,77.41,22.288,78.415,21.048,78.415z"/>
	<path style="fill:#787878;" d="M4,21.048V6.245C4,5.005,5.005,4,6.245,4h108.51C115.995,4,117,5.005,117,6.245v14.803
		c0,1.24-1.005,2.245-2.245,2.245H6.245C5.005,23.293,4,22.288,4,21.048z"/>
	<path style="fill:#787878;" d="M99.952,15.024h14.803c1.24,0,2.245,1.005,2.245,2.245v61.657c0,1.24-1.005,2.245-2.245,2.245
		H99.952c-1.24,0-2.245-1.005-2.245-2.245V17.269C97.707,16.029,98.712,15.024,99.952,15.024z"/>
	<path style="fill:#787878;" d="M111.488,64.123v14.803c0,1.24-1.005,2.245-2.245,2.245H47.586c-1.24,0-2.245-1.005-2.245-2.245
		V64.123c0-1.24,1.005-2.245,2.245-2.245h61.657C110.483,61.878,111.488,62.883,111.488,64.123z"/>
	<path style="fill:#787878;" d="M62.389,48.098H47.586c-1.24,0-2.245-1.005-2.245-2.245V31.05c0-1.24,1.005-2.245,2.245-2.245
		h14.803c1.24,0,2.245,1.005,2.245,2.245v14.803C64.634,47.092,63.629,48.098,62.389,48.098z"/>
	<path style="fill:#787878;" d="M87.194,45.341h-9.291c-1.24,0-2.245-1.005-2.245-2.245v-9.291c0-1.24,1.005-2.245,2.245-2.245
		h9.291c1.24,0,2.245,1.005,2.245,2.245v9.291C89.439,44.336,88.434,45.341,87.194,45.341z"/>
	<path style="fill:#787878;" d="M31.561,98.219v-9.291c0-1.24,1.005-2.245,2.245-2.245h61.657c1.24,0,2.245,1.005,2.245,2.245v9.291
		c0,1.24-1.005,2.245-2.245,2.245H33.806C32.566,100.463,31.561,99.458,31.561,98.219z"/>
	<path style="fill:#787878;" d="M15.024,114.755v-6.535c0-1.24,1.005-2.245,2.245-2.245h61.657c1.24,0,2.245,1.005,2.245,2.245
		v6.535c0,1.24-1.005,2.245-2.245,2.245H17.269C16.029,117,15.024,115.995,15.024,114.755z"/>
</g>
</svg>
